<svg id="Capa_1" data-name="Capa 1" xmlns="http://www.w3.org/2000/svg" viewBox="0 0 274.49 65"><defs><style>.cls-1{fill:#323f47;}</style></defs><title>logo_Codere_Gris#333f48</title><g id="MARCA"><path class="cls-1" d="M32.66,48.64c-2.33,3.72-5.32,5.61-8.9,5.61-6.94,0-12.17-5.46-12.17-12.71,0-6.31,4-12.72,11.71-12.72,6,0,8.17,3.84,9.35,5.89l.19.34H45.71l-.3-.89A23.1,23.1,0,0,0,23.3,18.07a23.64,23.64,0,0,0-16.2,6.6A23,23,0,0,0,0,41.38,23.55,23.55,0,0,0,23.39,65c10.21,0,18.45-5.89,22-15.77l.33-.91H32.86ZM72.39,18.08A23.46,23.46,0,1,0,95.75,41.54,23.33,23.33,0,0,0,72.39,18.08Zm.1,35.75a11.89,11.89,0,0,1,0-23.77h0a11.89,11.89,0,1,1,0,23.77Zm62.21-31a19.87,19.87,0,0,0-12.59-4.78c-12.7,0-22.54,10.46-22.54,23.46a23.41,23.41,0,1,0,46.82,0V0H134.7V22.86Zm-11.77,31a11.83,11.83,0,1,1,.1,0Zm58.75-.66a14.11,14.11,0,0,1-16.45-4l32.92-13.94-1.31-3.08c-5.11-12.07-17.49-17.85-30.39-12.39s-18.39,18.8-13.28,30.87,19.44,17,32.35,11.56A27,27,0,0,0,199,50l-9.57-4.89A13.48,13.48,0,0,1,181.68,53.17ZM170.3,28.88a11.58,11.58,0,0,1,12.81,2.4L162.45,40A12.6,12.6,0,0,1,170.3,28.88Zm94.62,16.26a13.47,13.47,0,0,1-7.74,8,14.11,14.11,0,0,1-16.45-3.95l32.92-13.94-1.31-3.08C267.24,20.12,254.86,14.34,242,19.8s-18.39,18.81-13.29,30.88,19.45,17,32.35,11.56A26.92,26.92,0,0,0,274.49,50ZM245.8,28.88a11.6,11.6,0,0,1,12.82,2.4L238,40A12.61,12.61,0,0,1,245.8,28.88Zm-41.92,9.81V63.78h11.57V40.11c0-7.11,4.06-10.56,9.75-10.56V19.1C212,19.1,203.88,28,203.88,38.69Z"/></g></svg>